<?xml version="1.0" encoding="utf-8"?>
<!-- Generator: Adobe Illustrator 21.0.1, SVG Export Plug-In . SVG Version: 6.00 Build 0)  -->
<svg version="1.1" id="Layer_1" xmlns="http://www.w3.org/2000/svg" xmlns:xlink="http://www.w3.org/1999/xlink" x="0px" y="0px"
	 viewBox="0 0 126 126" style="enable-background:new 0 0 126 126;" xml:space="preserve">
<style type="text/css">
	.st0{fill:#FFFFFF;}
	.st1{fill:#DBDBDB;}
	.st2{fill:#433F3E;}
	.st3{fill:#191919;}
</style>
<g>
	<g>
		<path class="st0" d="M118.5,102.6V120c0,3.1-2.8,5.8-6.2,5.8H9.3V96.9h103.1C115.7,96.9,118.5,99.5,118.5,102.6z"/>
		<path class="st1" d="M118.5,117.9v2.1c0,3.1-2.8,5.8-6.2,5.8H9.3v-2.1h103.1C115.7,123.7,118.5,121.1,118.5,117.9z"/>
	</g>
	<g>
		<path class="st0" d="M109.5,38.2v17.4c0,3.1-2.6,5.8-5.7,5.8H9.2V32.5h94.6C107,32.5,109.5,35.1,109.5,38.2z"/>
		<path class="st1" d="M109.5,53.5v2.1c0,3.1-2.6,5.8-5.7,5.8H9.2v-2.1h94.6C107,59.3,109.5,56.7,109.5,53.5z"/>
	</g>
	<g>
		<path class="st0" d="M118.5,70.4v17.4c0,3.1-2.8,5.8-6.2,5.8H9.3V64.7h103.1C115.7,64.7,118.5,67.3,118.5,70.4z"/>
		<path class="st1" d="M118.5,85.8v2.1c0,3.1-2.8,5.8-6.2,5.8H9.3v-2.1h103.1C115.7,91.5,118.5,88.9,118.5,85.8z"/>
	</g>
	<g>
		<path class="st0" d="M109.5,5.9v17.4c0,3.1-2.6,5.8-5.7,5.8H9.2V0.2h94.6C107,0.2,109.5,2.8,109.5,5.9z"/>
		<path class="st1" d="M109.5,21.4v2.1c0,3.1-2.6,5.8-5.7,5.8H9.2v-2.1h94.6C107,27.1,109.5,24.5,109.5,21.4z"/>
	</g>
	<g>
		<path class="st2" d="M60.5,23.3v12.3c0,2.2-1.3,4.1-2.9,4.1H9.3V19.2h48.4C59.2,19.2,60.5,21.1,60.5,23.3z"/>
		<path class="st3" d="M60.5,32.8v2.8c0,2.2-1.3,4.1-2.9,4.1H9.3v-2.8h48.4C59.2,36.9,60.5,35.1,60.5,32.8z"/>
	</g>
	<g>
		<path class="st2" d="M60.5,55.5v12.3c0,2.2-1.3,4.1-2.9,4.1H9.3V51.5h48.4C59.2,51.5,60.5,53.3,60.5,55.5z"/>
		<g>
			<path class="st3" d="M60.5,65v2.8c0,2.2-1.3,4.1-2.9,4.1H9.3v-2.8h48.4C59.2,69.1,60.5,67.3,60.5,65z"/>
		</g>
	</g>
	<g>
		<path class="st2" d="M60.5,87.8v12.3c0,2.2-1.3,4.1-2.9,4.1H9.3V83.8h48.4C59.2,83.7,60.5,85.6,60.5,87.8z"/>
		<path class="st3" d="M60.5,97.3v2.8c0,2.2-1.3,4.1-2.9,4.1H9.3v-2.8h48.4C59.2,101.4,60.5,99.5,60.5,97.3z"/>
	</g>
</g>
</svg>
