<?xml version="1.0" encoding="utf-8"?>
<!-- Generator: Adobe Illustrator 21.0.1, SVG Export Plug-In . SVG Version: 6.00 Build 0)  -->
<svg version="1.1" id="Layer_1" xmlns="http://www.w3.org/2000/svg" xmlns:xlink="http://www.w3.org/1999/xlink" x="0px" y="0px"
	 viewBox="0 0 500 330" style="enable-background:new 0 0 500 330;" xml:space="preserve">
<style type="text/css">
	.st0{fill:#FFFFFF;}
	.st1{fill:#777777;}
	.st2{fill:#B7B7B7;}
</style>
<g>
	<polygon class="st0" points="324.6,210.1 304,191.6 328,154.4 316,97.3 273.7,63.6 234.8,57.5 192.2,76.6 165.9,120.2 165.9,165 
		199.2,206.1 244.3,220.7 296.9,206.1 316.7,216.5 	"/>
	<path class="st1" d="M306.9,188.7l-13.7,13.7l21.1,21.1l13.7-13.7L306.9,188.7z M299.6,202.4l7.4-7.4l14.7,14.7l-7.4,7.4
		L299.6,202.4z"/>
	<g>
		<path class="st0" d="M375.2,248.7l-42.8-42.8c-1.5-1.5-3.6-2.4-5.8-2.4c-2.2,0-4.2,0.8-5.8,2.4l-10,10c-3.2,3.2-3.2,8.3,0,11.5
			l42.8,42.8c3.2,3.2,8.3,3.2,11.5,0l10-10C378.3,257,378.3,251.8,375.2,248.7z"/>
		<path class="st1" d="M378.3,245.5l-42.8-42.8c-2.4-2.4-5.5-3.7-8.9-3.7c-3.4,0-6.5,1.3-8.9,3.7l-10,10c-4.9,4.9-4.9,12.9,0,17.8
			l42.8,42.8c2.5,2.5,5.7,3.7,8.9,3.7s6.5-1.2,8.9-3.7l10-10C383.2,258.4,383.2,250.4,378.3,245.5z M353.7,270.1l-42.8-42.8
			c-3.2-3.2-3.2-8.3,0-11.5l10-10c1.5-1.5,3.6-2.4,5.8-2.4c2.2,0,4.2,0.8,5.8,2.4l42.8,42.8c3.2,3.2,3.2,8.3,0,11.5l-10,10
			C362,273.3,356.8,273.3,353.7,270.1z"/>
	</g>
	<g>
		<path class="st0" d="M244.8,52.1c-48.3,0-87.4,39.1-87.4,87.4s39.1,87.4,87.4,87.4s87.4-39.1,87.4-87.4S293.1,52.1,244.8,52.1z
			 M244.8,213.2c-40.7,0-73.7-33-73.7-73.7s33-73.7,73.7-73.7s73.7,33,73.7,73.7S285.5,213.2,244.8,213.2z"/>
		<g>
			<path class="st1" d="M244.8,49.8c-49.5,0-89.7,40.2-89.7,89.7s40.2,89.7,89.7,89.7c49.5,0,89.7-40.2,89.7-89.7
				S294.3,49.8,244.8,49.8z M244.8,224.7c-47,0-85.2-38.2-85.2-85.2s38.2-85.2,85.2-85.2S330,92.5,330,139.5
				S291.8,224.7,244.8,224.7z"/>
			<path class="st1" d="M244.8,63.6c-41.9,0-75.9,34.1-75.9,75.9s34.1,75.9,75.9,75.9s75.9-34.1,75.9-75.9S286.7,63.6,244.8,63.6z
				 M244.8,211c-39.4,0-71.4-32.1-71.4-71.4s32.1-71.4,71.4-71.4s71.4,32.1,71.4,71.4S284.2,211,244.8,211z"/>
		</g>
	</g>
	<path class="st1" d="M354.3,232.5l-14.9-15.3c-0.9-0.9-2.3-0.9-3.2,0c-0.9,0.9-0.9,2.3,0,3.2l14.9,15.3c0.4,0.4,1,0.7,1.6,0.7
		c0.6,0,1.1-0.2,1.6-0.6C355.2,234.8,355.2,233.4,354.3,232.5z"/>
	<polygon class="st1" points="218.7,137 214,132.3 210.3,136 206.6,132.3 201.9,137 205.6,140.7 201.9,144.4 206.6,149.1 
		210.3,145.5 214,149.1 218.7,144.4 215,140.7 	"/>
	<polygon class="st1" points="290.5,137 285.8,132.3 282.1,136 278.4,132.3 273.7,137 277.4,140.7 273.7,144.4 278.4,149.1 
		282.1,145.5 285.8,149.1 290.5,144.4 286.9,140.7 	"/>
	<path class="st1" d="M257.1,165.9c-2.2-4-6.4-6.4-10.9-6.4s-8.7,2.5-10.9,6.4c-0.9,1.6-0.3,3.7,1.3,4.6c1.6,0.9,3.7,0.3,4.6-1.3
		c1-1.8,3-3,5.1-3s4,1.1,5.1,3c0.6,1.1,1.8,1.7,2.9,1.7c0.6,0,1.1-0.1,1.6-0.4C257.4,169.5,258,167.5,257.1,165.9z"/>
</g>
<g>
	<g>
		<path class="st2" d="M181.7,280.9v2.7v5.3v19.8c-1-0.4-2-0.7-3.2-0.7c-4.1,0-7.5,3.4-7.5,7.5c0,4.1,3.4,7.5,7.5,7.5
			c4.1,0,7.5-3.4,7.5-7.5v-27.9l23-7v18.7c-1-0.4-2-0.7-3.2-0.7c-4.1,0-7.5,3.4-7.5,7.5c0,4.1,3.4,7.5,7.5,7.5
			c4.1,0,7.5-3.4,7.5-7.5v-26.8v-5.1v-2.9L181.7,280.9z"/>
		<circle class="st2" cx="176.5" cy="314.5" r="4.4"/>
		<circle class="st2" cx="203.6" cy="304.8" r="4.4"/>
	</g>
	<g>
		<path class="st2" d="M99.3,125.6v1.5v2.9v11.1c-0.5-0.2-1.1-0.4-1.8-0.4c-2.3,0-4.2,1.9-4.2,4.2c0,2.3,1.9,4.2,4.2,4.2
			c2.3,0,4.2-1.9,4.2-4.2v-15.6l12.9-3.9v10.4c-0.5-0.2-1.1-0.4-1.8-0.4c-2.3,0-4.2,1.9-4.2,4.2c0,2.3,1.9,4.2,4.2,4.2
			c2.3,0,4.2-1.9,4.2-4.2v-15v-2.8v-1.6L99.3,125.6z"/>
		<circle class="st2" cx="96.4" cy="144.4" r="2.5"/>
		<circle class="st2" cx="111.6" cy="139" r="2.5"/>
	</g>
	<g id="Layer_1_1_" transform="matrix(0.2159858,0,0,0.2154621,-250.44008,-1202.5924)">
		<path class="st2" d="M1452.7,6767.1c-6.3-9.3-15.5-16.9-26-21.1c-1.7-0.7-25.3-5.4-25.2-4.1c-0.9-10.7-1.7-21.4-2.6-32
			c-0.4-5-0.8-10-1.2-15c-0.3-3.3,14-12.9,16.9-15.7c93.1-90.8,56.6-208.4,5.8-164.6c-17.4,15.1-27.9,38.4-33,60
			c-6,25.8-5.6,53-1.6,79.1c-41.1,32.5-91.8,71.7-90.1,129.9c1.7,56.1,49.1,105.6,106.6,98.5c1.8,25.4,7.3,62.4-1.2,81.6
			c-3.4,8.9-12.3,15.3-22.5,18.5c-12.8,3.9-23-11.6-14.3-21.8c3.1-3.6,5-8.5,5.2-15c0.9-24.4-27-39.3-45.2-21.5
			c-16.3,15.9-13.8,41.1,2.8,55.5c16.1,14,40.6,18,60.2,9.6c23.4-10,30.5-33.7,29-57.5c-0.7-10.9-1.7-21.9-2.8-32.8
			c-0.5-4.8-0.9-9.7-1.2-14.6c-0.1-1.8-0.2-3.7-0.3-5.5c2.5-0.6,5.1-1.3,7.5-2.1C1464,6861.8,1478.2,6804.6,1452.7,6767.1z
			 M1401.2,6583.2c4.9-13.5,14.3-40,32.8-34.2c19.9,6.1,5.7,42.7-0.5,53.4c-9.3,16.1-32.5,43-39.3,45.3
			C1393.7,6615.9,1397.8,6592.8,1401.2,6583.2z M1321,6795.8c1.3-43.5,34.4-74.3,68-95.9c1,13.6,1.9,27.3,2.9,40.9
			c0.3,4.4-2.7,3.3-6.7,4.9c-6,2.4-11.5,5.7-16.4,9.9c-12,10.2-20.1,24.6-22.5,40.2c-1.5,14.6,3.2,29.1,13.2,39.9
			c5.1,5.6,11.6,9.8,18.6,12.6c8.5-0.9-3.9-7.7-5.7-9.4c-23.4-21.5-6.6-58.8,22.5-63.2c1.3,17.4,4.7,74.3,5.5,85.4
			c0.2,3,0.2,3,0.4,5.9C1400.7,6866.9,1318.7,6873.8,1321,6795.8z M1411.6,6866.6c-2.5-31.5-4.7-59.6-7.2-91.1
			C1453.5,6781.5,1459.4,6853.9,1411.6,6866.6z"/>
	</g>
	<path class="st2" d="M390,29.8c-8.4-5.6-9.4-13.9-9.4-13.9v-0.1h-2.8l0.2,42.8c-2-1.9-4.8-3-8-3c-5.9,0-10.7,4-10.7,8.9
		c0,4.9,4.8,8.8,10.7,8.8c5.8,0,10.6-3.6,10.7-8.9h-0.1v0.1c0,0,0,0,0,0c0,0,0,0,0,0l-0.1-28.1c1.4,2.1,3.8,4.7,8.1,7.9
		c8.7,6.5,2.5,13.3,2.5,13.3c4.6-2.2,6.4-8.1,2.1-13.1C396.9,41,397,34.5,390,29.8z M390,41.6c-7.5-5-9.2-12.2-9.4-13.7l0-3.4
		c1.4,2.2,3.8,4.7,8.2,8c5.7,4.3,5,8.6,3.8,11.1C391.8,42.9,391,42.2,390,41.6z"/>
	<path class="st2" d="M486.1,257.1V255h-5.4v-6.5h-2.2v6.5h-5.8v-4.7h-2.2v4.7h-5.4v2.2h5.4v5.4h-5.4v2.2h5.4v6.5h2.2v-6.5h5.8v4.7
		h2.2v-4.7h5.4v-2.2h-5.4v-5.4H486.1z M478.5,262.6h-5.8v-5.4h5.8V262.6z"/>
	<path class="st2" d="M429.7,174.5C429.7,174.5,429.7,174.5,429.7,174.5C429.7,174.5,429.7,174.5,429.7,174.5l-3.9-29.8l0,0
		l-0.1-0.5l-22.6,5.8l0.5,3.5l3,22.9c-1.3-1-3.2-1.5-5.2-1.2c-3.6,0.5-6.2,3.3-5.8,6.3c0.4,3,3.6,5,7.2,4.6c3.6-0.4,6.2-3,5.8-6.2
		l0,0l0,0.1c0,0,0,0,0,0c0,0,0,0,0,0l-3-23.3l19.3-5.2l2.6,19.8c-1.3-1-3.2-1.5-5.2-1.2c-3.6,0.5-6.2,3.3-5.8,6.3
		c0.4,3,3.6,5.1,7.2,4.7c3.6-0.4,6.2-3.2,5.9-6.1l0,0L429.7,174.5z M405.5,154.8l-0.2-1.6l19.3-5l0.2,1.5L405.5,154.8z"/>
	<g id="Layer_1_2_" transform="matrix(0.2159858,0,0,0.2154621,-250.44008,-1202.5924)">
		<path class="st2" d="M3444.1,6071.3c-6.6-5-14.8-8.2-23.1-8.7c-1.3-0.1-19,2.1-18.6,3c-3.1-7.3-6.2-14.5-9.2-21.8
			c-1.4-3.4-2.9-6.8-4.3-10.2c-1-2.3,6.8-12.2,8.2-14.9c44.2-85.1-8.5-158.9-33.9-116.5c-8.7,14.6-10.7,33.4-9.2,49.7
			c1.7,19.4,8.4,38.4,17.1,55.7c-21.3,32.3-47.7,71.5-33,111.8c14.1,38.9,58.8,62.5,97.3,44.2c7.1,17.3,19.6,42,18,57.4
			c-0.3,7-5.1,13.6-11.5,18.1c-8.1,5.7-18.7-2.8-15-11.9c1.3-3.2,1.5-7.1,0.2-11.7c-5-17.3-27.9-21.2-36.6-4.6
			c-7.7,14.9-0.1,32,14.8,38.2c14.5,6.1,32.5,3.2,44.3-7.3c14-12.4,13.5-30.7,7-46.9c-3-7.5-6.3-14.9-9.5-22.3
			c-1.4-3.3-2.9-6.6-4.2-9.9c-0.5-1.3-1-2.5-1.5-3.8c1.6-1,3.2-2.1,4.8-3.2C3473.8,6134.9,3470.6,6091.6,3444.1,6071.3z
			 M3365.6,5954.6c0.3-10.6,0.8-31.3,15-31.6c15.3-0.3,13.9,28.5,12,37.5c-2.8,13.5-12.8,37.6-17,40.8
			C3367.9,5979.2,3365.4,5962.1,3365.6,5954.6z M3358.6,6122c-9.2-30.7,6.9-60,25.4-82.9c3.8,9.3,7.7,18.6,11.5,28
			c1.2,3-1.1,2.9-3.6,5c-3.6,3-6.7,6.7-9.2,10.7c-6,9.9-8.4,21.9-6.5,33.3c2.3,10.5,9,19.6,18.4,24.8c4.9,2.7,10.4,4.2,15.9,4.5
			c5.7-2.6-4.5-4.5-6.2-5.3c-21.3-9.6-18.2-39.6,1.1-49.5c4.9,11.9,20.4,50.9,23.6,58.5c0.8,2,0.8,2,1.7,4
			C3430.8,6153.2,3375,6177,3358.6,6122z M3438.3,6150.5c-9-21.5-17.1-40.6-26.1-62.1C3448,6081.2,3468.8,6130.4,3438.3,6150.5z"/>
	</g>
	<path class="st2" d="M46.1,53.7c-10.1-3.1-13.8-11.1-13.8-11.2l0-0.1l-2.5,0.8l13,43c-2.5-1.3-5.8-1.6-9-0.7
		c-5.9,1.8-9.5,7.2-8.1,12.1c1.5,4.9,7.4,7.4,13.4,5.7c5.9-1.8,9.6-6.8,8.1-12.1l0.2,0l0,0.1c0,0,0,0,0,0c0,0,0,0,0,0L35.1,51.2
		c2,1.8,5.2,3.6,10.6,5.6c10.7,3.9,6.4,12.6,6.4,12.6C56.8,65,55.9,56.8,46.1,53.7z"/>
	<g>
		<circle class="st2" cx="137.1" cy="233.6" r="4.4"/>
	</g>
	<g>
		<circle class="st2" cx="310.4" cy="28.6" r="6.3"/>
	</g>
	<g>
		<polygon class="st2" points="219,11.9 219,8.4 215.1,8.4 215.1,4.5 211.6,4.5 211.6,8.4 207.7,8.4 207.7,11.9 211.6,11.9 
			211.6,15.8 215.1,15.8 215.1,11.9 		"/>
	</g>
	<g>
		<polygon class="st2" points="121.1,65.1 124.7,61.5 120.6,57.5 124.7,53.4 121.1,49.8 117,53.9 113,49.8 109.4,53.4 113.4,57.5 
			109.4,61.5 113,65.1 117,61.1 		"/>
	</g>
	<g>
		<polygon class="st2" points="391.4,226.8 391.4,225.1 389.5,225.1 389.5,223.1 387.7,223.1 387.7,225.1 385.8,225.1 385.8,226.8 
			387.7,226.8 387.7,228.8 389.5,228.8 389.5,226.8 		"/>
	</g>
	<g>
		<polygon class="st2" points="252.4,258.9 252.4,256.4 249.6,256.4 249.6,253.6 247.1,253.6 247.1,256.4 244.3,256.4 244.3,258.9 
			247.1,258.9 247.1,261.7 249.6,261.7 249.6,258.9 		"/>
	</g>
	<g>
		
			<ellipse transform="matrix(0.9956 -9.329145e-02 9.329145e-02 0.9956 -8.9245 36.7913)" class="st2" cx="389" cy="113.8" rx="2.2" ry="2.2"/>
	</g>
	<g>
		<path class="st2" d="M8.8,154.4c-4.2,0-7.6-3.4-7.6-7.6s3.4-7.6,7.6-7.6c4.2,0,7.6,3.4,7.6,7.6S13,154.4,8.8,154.4z M8.8,142.2
			c-2.5,0-4.6,2.1-4.6,4.6s2.1,4.6,4.6,4.6c2.5,0,4.6-2.1,4.6-4.6S11.3,142.2,8.8,142.2z"/>
	</g>
	<g>
		<path class="st2" d="M329.2,306.3c-2.5,0-4.5-2-4.5-4.5s2-4.5,4.5-4.5s4.5,2,4.5,4.5S331.7,306.3,329.2,306.3z M329.2,300.2
			c-0.9,0-1.5,0.7-1.5,1.5s0.7,1.5,1.5,1.5s1.5-0.7,1.5-1.5S330,300.2,329.2,300.2z"/>
	</g>
	<path class="st2" d="M119.5,317v-1.3h-3.4v-4h-1.3v4h-3.6v-2.9h-1.3v2.9h-3.4v1.3h3.4v3.4h-3.4v1.3h3.4v4h1.3v-4h3.6v2.9h1.3v-2.9
		h3.4v-1.3h-3.4V317H119.5z M114.8,320.4h-3.6V317h3.6V320.4z"/>
	<g>
		<circle class="st2" cx="492.7" cy="198" r="3.4"/>
	</g>
	<g>
		<polygon class="st2" points="426,316.2 429.3,312.9 425.6,309.2 429.3,305.6 426,302.3 422.3,306 418.7,302.3 415.4,305.6 
			419,309.2 415.4,312.9 418.7,316.2 422.3,312.5 		"/>
	</g>
	<g>
		<path class="st2" d="M454.3,41.8c-3.8,0-6.9-3.1-6.9-6.9c0-3.8,3.1-6.9,6.9-6.9s6.9,3.1,6.9,6.9C461.2,38.7,458.1,41.8,454.3,41.8
			z M454.3,31c-2.1,0-3.9,1.7-3.9,3.9c0,2.1,1.7,3.9,3.9,3.9s3.9-1.7,3.9-3.9C458.2,32.8,456.5,31,454.3,31z"/>
	</g>
</g>
</svg>
